 <svg  version="1.0" xmlns="http://www.w3.org/2000/svg"  width="300.000000pt" height="58.000000pt" viewBox="0 0 300.000000 58.000000"  preserveAspectRatio="xMidYMid meet">  <g transform="translate(0.000000,58.000000) scale(0.100000,-0.100000)" fill="#151414" stroke="none"> <path d="M825 455 l-30 -13 32 -1 c17 -1 34 3 38 8 10 17 -9 19 -40 6z"/> <path d="M1907 464 c-4 -4 -7 -18 -7 -31 0 -21 5 -23 45 -23 25 0 45 -1 45 -3 0 -2 -20 -63 -45 -137 -25 -74 -45 -147 -45 -163 0 -26 3 -29 23 -23 12 3 52 6 90 6 65 0 67 1 67 25 0 23 -4 25 -45 25 -25 0 -45 4 -45 8 0 4 20 66 45 137 26 71 45 139 43 152 -3 23 -8 24 -84 29 -44 2 -83 1 -87 -2z m153 -29 c0 -10 -82 -250 -92 -269 -8 -14 -6 -21 6 -28 26 -14 19 -28 -14 -28 -40 0 -46 19 -21 71 12 23 21 50 21 59 0 9 3 20 7 23 4 4 17 38 29 75 25 73 24 76 -31 94 -11 3 5 6 38 7 31 1 57 -1 57 -4z"/> <path d="M2438 463 c7 -3 16 -2 19 1 4 3 -2 6 -13 5 -11 0 -14 -3 -6 -6z"/> <path d="M2560 466 c0 -2 13 -6 29 -8 17 -2 28 -1 25 4 -5 8 -54 12 -54 4z"/> <path d="M2772 463 c73 -4 77 -5 81 -29 4 -21 4 -21 3 3 l-1 28 -80 1 -80 0 77 -3z"/> <path d="M651 444 c0 -11 3 -14 6 -6 3 7 2 16 -1 19 -3 4 -6 -2 -5 -13z"/> <path d="M1130 450 c0 -5 15 -10 33 -10 24 0 28 3 17 10 -20 13 -50 13 -50 0z"/> <path d="M1272 273 c-2 -178 -1 -193 16 -193 12 0 13 3 5 8 -9 6 -13 60 -16 192 l-2 185 -3 -192z"/> <path d="M1452 435 c0 -16 2 -22 5 -12 2 9 2 23 0 30 -3 6 -5 -1 -5 -18z"/> <path d="M1492 273 c-2 -178 -1 -193 16 -193 12 0 13 3 5 8 -9 6 -13 60 -16 192 l-2 185 -3 -192z"/> <path d="M2402 273 c-2 -178 -1 -193 16 -193 12 0 13 3 5 8 -9 6 -13 60 -16 192 l-2 185 -3 -192z"/> <path d="M2471 455 c0 -5 9 -28 20 -50 10 -22 16 -29 13 -15 -7 28 -33 80 -33 65z"/> <path d="M2538 379 c-2 -45 0 -83 5 -86 4 -2 7 34 7 81 0 47 -2 86 -4 86 -3 0 -6 -36 -8 -81z"/> <path d="M2672 273 c-2 -178 -1 -193 16 -193 12 0 13 3 5 8 -9 6 -13 60 -16 192 l-2 185 -3 -192z"/> <path d="M2133 423 c-15 -22 -18 -49 -18 -153 0 -86 4 -132 13 -148 15 -26 69 -53 104 -51 14 1 6 5 -18 10 -23 5 -52 21 -65 35 -23 24 -24 32 -24 153 0 105 3 132 18 154 9 15 15 27 12 27 -2 0 -13 -12 -22 -27z"/> <path d="M2326 425 c24 -39 24 -40 24 -28 0 6 -9 21 -21 34 l-20 24 17 -30z"/> <path d="M230 425 c-6 -8 -10 -19 -8 -24 1 -6 8 1 15 14 13 28 11 31 -7 10z"/> <path d="M429 405 c5 -17 12 -39 15 -50 3 -11 3 -2 1 19 -2 22 -9 44 -15 50 -7 7 -8 2 -1 -19z"/> <path d="M542 410 c0 -14 2 -19 5 -12 2 6 2 18 0 25 -3 6 -5 1 -5 -13z"/> <path d="M808 423 c-10 -2 -18 -8 -18 -13 0 -5 -2 -15 -5 -23 -4 -8 0 -14 10 -14 8 0 15 6 15 13 0 18 14 24 30 13 13 -8 12 -12 -4 -24 -11 -8 -16 -18 -13 -22 4 -3 14 2 21 13 11 14 17 16 26 7 14 -13 5 -33 -16 -33 -8 0 -13 -5 -11 -12 1 -6 -6 -14 -15 -16 -11 -2 -18 2 -18 12 0 9 -6 16 -14 16 -8 0 -17 6 -19 13 -3 6 -6 2 -6 -11 -1 -13 -8 -51 -17 -86 -15 -60 -15 -65 3 -99 l18 -36 59 114 c59 111 59 114 47 154 -12 42 -24 47 -73 34z m-3 -134 c-3 -5 1 -6 9 -3 9 3 16 3 16 0 0 -15 -52 -108 -57 -102 -9 9 19 126 28 120 5 -3 7 -10 4 -15z"/> <path d="M907 390 l16 -40 73 0 c72 0 72 0 83 31 6 18 11 36 11 40 0 5 -45 9 -99 9 l-99 0 15 -40z m153 10 c0 -29 -101 -34 -128 -6 -16 15 -12 16 56 15 39 -1 72 -5 72 -9z"/> <path d="M1114 413 c-3 -10 -9 -28 -14 -40 -7 -17 4 -46 53 -137 l62 -116 17 38 c16 35 16 44 3 93 -8 30 -15 64 -15 77 0 19 -4 21 -26 16 -20 -5 -25 -3 -22 7 3 8 13 13 21 13 13 -1 15 4 11 25 -8 32 -2 27 -47 35 -31 6 -38 4 -43 -11z m56 -28 c0 -8 -7 -15 -15 -15 -8 0 -15 7 -15 15 0 8 7 15 15 15 8 0 15 -7 15 -15z m-35 -26 c10 -15 -1 -23 -20 -15 -9 3 -13 10 -10 16 8 13 22 13 30 -1z m35 -45 c0 -8 -7 -14 -15 -14 -15 0 -21 21 -9 33 10 9 24 -2 24 -19z m50 -123 c0 -18 -10 -8 -38 40 -20 33 -20 37 -5 59 l17 24 12 -55 c7 -30 13 -61 14 -68z"/> <path d="M1716 400 c8 -43 14 -51 14 -19 0 13 -5 31 -10 39 -7 11 -8 5 -4 -20z"/> <path d="M312 408 c-8 -8 -12 -52 -12 -133 0 -117 6 -145 34 -145 5 0 2 6 -7 13 -15 11 -17 28 -15 137 3 103 6 125 18 125 10 0 17 -13 20 -35 5 -33 7 -35 45 -36 l40 -1 -37 4 c-34 4 -38 7 -38 32 0 25 -15 51 -30 51 -3 0 -11 -5 -18 -12z"/> <path d="M662 400 c0 -14 4 -38 8 -55 7 -27 8 -27 8 -5 0 14 -4 39 -8 55 -7 27 -8 27 -8 5z"/> <path d="M2243 402 c13 -14 17 -44 20 -132 l3 -115 2 113 c2 110 -6 152 -30 152 -6 0 -4 -8 5 -18z"/> <path d="M2613 355 c0 -38 2 -53 4 -32 2 20 2 52 0 70 -2 17 -4 1 -4 -38z"/> <path d="M1632 390 c14 -22 24 -19 15 5 -4 8 -11 15 -17 15 -6 0 -6 -7 2 -20z"/> <path d="M214 258 c1 -122 2 -129 26 -152 14 -13 36 -27 50 -30 20 -5 19 -3 -6 8 -53 25 -59 39 -65 175 l-6 126 1 -127z"/> <path d="M532 360 c0 -14 2 -19 5 -12 2 6 2 18 0 25 -3 6 -5 1 -5 -13z"/> <path d="M2204 275 c0 -60 1 -84 3 -52 2 32 2 81 0 110 -2 29 -3 3 -3 -58z"/> <path d="M2762 345 c0 -16 2 -22 5 -12 2 9 2 23 0 30 -3 6 -5 -1 -5 -18z"/> <path d="M601 350 c-1 -8 -4 -26 -7 -40 -5 -22 -4 -23 6 -7 6 10 9 28 7 40 -2 12 -5 15 -6 7z"/> <path d="M1643 345 c-3 -9 -3 -18 -1 -21 3 -3 8 4 11 16 6 23 -1 27 -10 5z"/> <path d="M1717 321 c-4 -17 -3 -21 5 -13 5 5 8 16 6 23 -3 8 -7 3 -11 -10z"/> <path d="M506 234 c-10 -52 -16 -97 -14 -99 2 -3 12 38 22 91 10 52 16 97 14 99 -2 3 -12 -38 -22 -91z"/> <path d="M911 320 c-3 -3 -14 -17 -24 -33 l-18 -27 46 -20 c57 -24 83 -25 146 -3 52 19 56 25 35 62 -12 21 -20 23 -95 25 -46 0 -86 -1 -90 -4z m44 -40 c0 -18 -6 -26 -23 -28 -24 -4 -38 18 -28 44 3 9 15 14 28 12 17 -2 23 -10 23 -28z m48 23 c-7 -2 -19 -2 -25 0 -7 3 -2 5 12 5 14 0 19 -2 13 -5z m82 -23 c0 -18 -6 -26 -23 -28 -24 -4 -38 18 -28 44 3 9 15 14 28 12 17 -2 23 -10 23 -28z m-80 -14 c12 -12 11 -15 -10 -19 -28 -5 -27 -5 -19 17 8 20 12 20 29 2z"/> <path d="M915 290 c-7 -12 2 -30 16 -30 5 0 9 9 9 20 0 21 -15 27 -25 10z"/> <path d="M1046 291 c-3 -5 1 -14 9 -21 13 -10 15 -9 15 9 0 21 -14 28 -24 12z"/> <path d="M682 290 c0 -14 2 -19 5 -12 2 6 2 18 0 25 -3 6 -5 1 -5 -13z"/> <path d="M610 269 c0 -19 5 -41 10 -49 7 -10 8 -1 4 30 -8 56 -14 64 -14 19z"/> <path d="M329 278 c-10 -34 -7 -48 10 -48 15 0 21 -8 24 -37 l4 -38 1 38 c2 31 -2 40 -17 44 -13 3 -17 11 -14 24 3 10 3 19 -1 19 -3 0 -6 -1 -7 -2z"/> <path d="M444 195 c0 -49 1 -71 3 -48 2 23 2 64 0 90 -2 26 -3 8 -3 -42z"/> <path d="M2481 270 c0 -8 9 -33 20 -55 10 -22 16 -29 13 -16 -10 37 -33 88 -33 71z"/> <path d="M690 239 c0 -13 5 -31 10 -39 7 -11 8 -5 4 20 -8 43 -14 51 -14 19z"/> <path d="M1598 243 c5 -10 15 -43 22 -73 19 -88 20 -90 43 -89 21 0 21 1 2 8 -15 7 -24 28 -38 90 -10 44 -23 81 -28 81 -6 0 -6 -7 -1 -17z"/> <path d="M2773 253 c9 -2 25 -2 35 0 9 3 1 5 -18 5 -19 0 -27 -2 -17 -5z"/> <path d="M582 230 c0 -14 2 -19 5 -12 2 6 2 18 0 25 -3 6 -5 1 -5 -13z"/> <path d="M1687 229 c4 -13 8 -18 11 -10 2 7 -1 18 -6 23 -8 8 -9 4 -5 -13z"/> <path d="M2763 180 c0 -25 2 -35 4 -22 2 12 2 32 0 45 -2 12 -4 2 -4 -23z"/> <path d="M1701 190 c0 -8 4 -24 9 -35 5 -13 9 -14 9 -5 0 8 -4 24 -9 35 -5 13 -9 14 -9 5z"/> <path d="M570 161 c0 -5 9 -7 20 -4 11 3 20 7 20 9 0 2 -9 4 -20 4 -11 0 -20 -4 -20 -9z"/> <path d="M625 153 c12 -62 17 -73 27 -73 9 0 9 3 0 12 -7 7 -12 24 -12 39 0 15 -4 30 -9 33 -5 4 -8 -2 -6 -11z"/> <path d="M2521 168 c-3 -22 33 -88 47 -88 14 0 14 1 0 13 -9 6 -23 28 -31 47 -9 19 -16 32 -16 28z"/> <path d="M2331 133 c-10 -26 -10 -27 4 -9 8 11 15 23 15 28 0 15 -7 8 -19 -19z"/> <path d="M566 125 c-3 -9 -6 -22 -5 -28 0 -7 5 -1 10 12 5 13 8 26 5 28 -2 2 -6 -3 -10 -12z"/> <path d="M711 124 c0 -11 3 -14 6 -6 3 7 2 16 -1 19 -3 4 -6 -2 -5 -13z"/> <path d="M1452 115 c0 -16 2 -22 5 -12 2 9 2 23 0 30 -3 6 -5 -1 -5 -18z"/> <path d="M2852 115 c0 -16 2 -22 5 -12 2 9 2 23 0 30 -3 6 -5 -1 -5 -18z"/> <path d="M1720 116 c0 -8 4 -17 9 -20 5 -4 7 3 4 14 -6 23 -13 26 -13 6z"/> <path d="M481 103 c-1 -19 4 -23 27 -22 22 1 23 2 5 6 -12 2 -24 12 -26 21 -3 12 -5 10 -6 -5z"/> <path d="M376 95 c4 -9 17 -14 33 -14 23 2 24 2 4 6 -13 2 -23 9 -23 14 0 5 -4 9 -10 9 -5 0 -7 -7 -4 -15z"/> </g> </svg> 